HIERARCHY
ROOT root
{
	OFFSET	0	13.1	24.9
	CHANNELS 6  Xposition Yposition Zposition Xrotation Yrotation Zrotation
	JOINT spine_1
	{
		OFFSET	0	9.99999	0
		CHANNELS 3  Xrotation Yrotation Zrotation
		JOINT spine_2
		{
			OFFSET	0	112	-10
			CHANNELS 3  Xrotation Yrotation Zrotation
			JOINT spine_3
			{
				OFFSET	0	206.5	19.3
				CHANNELS 3  Xrotation Yrotation Zrotation
				JOINT spine_4
				{
					OFFSET	0	110.4	14.6
					CHANNELS 3  Xrotation Yrotation Zrotation
					JOINT neck_1
					{
						OFFSET	0	71.8	-50.3
						CHANNELS 3  Xrotation Yrotation Zrotation
						JOINT neck_2
						{
							OFFSET	0	86.2	-25.8
							CHANNELS 3  Xrotation Yrotation Zrotation
							JOINT head_ee
							{
								OFFSET	0	179.8	-8.7
								CHANNELS 3  Xrotation Yrotation Zrotation
								End Site
								{
									OFFSET	1	0	0
								}
							}
						}
					}
					JOINT left_clavicle
					{
						OFFSET	-43.2	22.4	-70.8
						CHANNELS 3  Xrotation Yrotation Zrotation
						JOINT left_shoulder
						{
							OFFSET	-93.9	-5.79999	48.7
							CHANNELS 3  Xrotation Yrotation Zrotation
							JOINT left_elbow
							{
								OFFSET	-291.4	-30.8	15.2
								CHANNELS 3  Xrotation Yrotation Zrotation
								JOINT left_lowarm_twist
								{
									OFFSET	-110.7	-3.89999	13.6
									CHANNELS 3  Xrotation Yrotation Zrotation
									JOINT left_hand
									{
										OFFSET	-110.7	-3.89999	13.6
										CHANNELS 3  Xrotation Yrotation Zrotation
										JOINT left_ee
										{
											OFFSET	-80.8	-5.10001	12.1
											CHANNELS 3  Xrotation Yrotation Zrotation
											End Site
											{
												OFFSET	1	0	0
											}
										}
									}
								}
							}
						}
					}
					JOINT right_clavicle
					{
						OFFSET	43.2	22.4	-70.8
						CHANNELS 3  Xrotation Yrotation Zrotation
						JOINT right_shoulder
						{
							OFFSET	93.9	-5.79999	48.7
							CHANNELS 3  Xrotation Yrotation Zrotation
							JOINT right_elbow
							{
								OFFSET	291.4	-30.8	15.2
								CHANNELS 3  Xrotation Yrotation Zrotation
								JOINT right_lowarm_twist
								{
									OFFSET	110.7	-3.89999	13.6
									CHANNELS 3  Xrotation Yrotation Zrotation
									JOINT right_hand
									{
										OFFSET	110.7	-3.89999	13.6
										CHANNELS 3  Xrotation Yrotation Zrotation
										JOINT right_ee
										{
											OFFSET	80.8	-5.10001	12.1
											CHANNELS 3  Xrotation Yrotation Zrotation
											End Site
											{
												OFFSET	1	0	0
											}
										}
									}
								}
							}
						}
					}
				}
			}
		}
	}
	JOINT left_hip
	{
		OFFSET	-82.8	-127.5	0.300001
		CHANNELS 3  Xrotation Yrotation Zrotation
		JOINT left_knee
		{
			OFFSET	-28.2	-396.7	2.2
			CHANNELS 3  Xrotation Yrotation Zrotation
			JOINT left_ankle
			{
				OFFSET	-11.7	-411.3	35.4
				CHANNELS 3  Xrotation Yrotation Zrotation
				JOINT left_toes
				{
					OFFSET	0	-60	-88.6
					CHANNELS 3  Xrotation Yrotation Zrotation
					JOINT left_foot_ee
					{
						OFFSET	-22.5	-16.5	-42.2
						CHANNELS 3  Xrotation Yrotation Zrotation
						End Site
						{
							OFFSET	1	0	0
						}
					}
				}
			}
		}
	}
	JOINT right_hip
	{
		OFFSET	82.8	-127.5	0.300001
		CHANNELS 3  Xrotation Yrotation Zrotation
		JOINT right_knee
		{
			OFFSET	28.2	-396.7	2.2
			CHANNELS 3  Xrotation Yrotation Zrotation
			JOINT right_ankle
			{
				OFFSET	11.7	-411.3	35.4
				CHANNELS 3  Xrotation Yrotation Zrotation
				JOINT right_toes
				{
					OFFSET	0	-60	-88.6
					CHANNELS 3  Xrotation Yrotation Zrotation
					JOINT right_foot_ee
					{
						OFFSET	22.5	-16.5	-42.2
						CHANNELS 3  Xrotation Yrotation Zrotation
						End Site
						{
							OFFSET	1	0	0
						}
					}
				}
			}
		}
	}
}
MOTION
Frames: 9
Frame Time: 0.02
3446.61 707.423 -1552.91 3.24132 69.4196 -7.17274 -1.0459 1.07031 3.00826 -1.04129 0.876807 3.07019 -0.989261 0.15753 3.18894 -1.00285 0.658939 3.12416 -6.99235 -23.8228 -5.69782 -6.95577 -40.4255 -10.6302 -0.0 0.0 -0.0 -6.8085 23.2831 -6.75779 -5.79816 -17.9028 75.1581 1.34052 -33.5847 0.404549 -40.2332 -2.976 4.07736 -1.5388 3.67504 -8.64936 -0.0 0.0 -0.0 14.3188 27.6854 -28.5281 -11.034 46.9599 -50.8269 0.915899 24.4039 -0.198061 -20.876 1.18279 -2.37818 1.65473 6.9123 -8.26396 0.0 0.0 0.0 21.368 6.41218 -5.27999 -53.0668 -1.49962 7.71878 20.8266 27.5875 -3.02418 -23.2804 0.0 0.0 -0.0 0.0 -0.0 -0.304813 -36.2655 7.05378 -15.293 -0.321997 -2.31785 37.3397 34.7592 6.01939 9.74023 -0.0 -0.0 0.0 0.0 0.0 
3434.77 716.034 -1552.8 5.01092 70.5846 -9.04216 -0.911914 0.691812 3.0542 -0.906862 0.496159 3.09199 -0.875694 -0.212518 3.12429 -0.889203 0.283326 3.11867 -7.76934 -23.6468 -5.38826 -7.90062 -40.5283 -10.6064 -0.0 0.0 -0.0 -7.14834 23.4273 -7.19497 -6.5504 -16.1813 77.1405 1.04103 -27.2793 0.252621 -40.0136 -2.95261 4.06164 -1.37608 4.15279 -7.34664 -0.0 0.0 -0.0 14.2761 27.2763 -28.4845 -9.45912 47.7615 -50.5457 0.943115 25.0412 -0.209444 -22.0155 1.27153 -2.49406 1.26962 8.17577 -5.10781 0.0 0.0 0.0 22.2633 2.96119 -2.89533 -41.2835 -0.550435 6.17701 27.5062 26.9941 -3.86106 -23.9806 0.0 0.0 -0.0 0.0 -0.0 -2.8408 -31.4479 5.67717 -13.1753 -0.314511 -1.99303 36.2412 32.9022 5.74526 9.14882 -0.0 -0.0 0.0 0.0 0.0 
3427.16 712.42 -1550.89 5.4153 71.0314 -9.64466 -0.942819 0.440904 3.01866 -0.937784 0.248016 3.04057 -0.920707 -0.445427 3.018 -0.933415 0.0365691 3.05044 -9.37453 -20.8593 -0.279618 -9.86864 -39.0712 -5.61996 -0.0 0.0 -0.0 -7.18723 23.3404 -7.27896 -7.82611 -15.2473 78.1626 0.932769 -24.7997 0.205084 -39.2181 -2.86839 4.00394 -1.38594 4.1698 -7.40443 -0.0 0.0 -0.0 14.0194 26.5272 -27.9823 -7.103 48.3662 -50.7329 0.966756 25.5894 -0.219553 -21.2776 1.2138 -2.41921 1.11311 10.6721 -2.97692 0.0 0.0 0.0 22.3643 0.668701 -2.25763 -33.7931 -0.119808 5.11032 26.2868 27.6827 -3.72843 -25.5149 0.0 0.0 -0.0 0.0 -0.0 -4.27293 -31.1722 5.4419 -11.5529 -0.300658 -1.74449 37.3483 30.9417 5.71691 11.2547 -0.0 -0.0 0.0 0.0 0.0 
3417.77 709.563 -1553.95 2.23121 71.9659 -7.17762 -0.733857 0.538252 3.29233 -0.727887 0.327779 3.31987 -0.704471 -0.418303 3.30969 -0.719738 0.10935 3.3342 -9.31759 -19.9507 1.33661 -9.7657 -38.4253 -3.77173 -0.0 0.0 -0.0 -7.56816 22.856 -7.98907 -8.98118 -14.7579 77.899 0.833525 -22.4358 0.165316 -40.0752 -2.95916 4.06605 -1.12582 3.37537 -6.03428 -0.0 0.0 -0.0 13.8432 25.8644 -27.6528 -5.02233 48.6697 -50.873 1.07668 28.0726 -0.269178 -20.7988 1.17687 -2.37026 0.811916 10.7647 -0.903861 0.0 0.0 0.0 21.9431 -2.05512 -1.19143 -29.2289 0.0728282 4.4366 31.6226 26.8577 -4.34291 -26.3795 0.0 0.0 -0.0 0.0 -0.0 -4.26305 -26.3526 5.47402 -12.4271 -0.308996 -1.87836 37.7581 25.2206 5.3972 11.4448 -0.0 -0.0 0.0 0.0 0.0 
3415.72 707.42 -1554.72 1.65818 71.7029 -7.43525 -0.528129 0.635426 3.31697 -0.522108 0.423192 3.35063 -0.49305 -0.319546 3.36209 -0.508757 0.215133 3.37037 -8.1733 -19.266 4.69855 -8.31733 -39.2914 0.195393 -0.0 0.0 -0.0 -7.17648 21.392 -7.90024 -9.66867 -13.547 78.3551 0.626152 -17.2328 0.094881 -40.5544 -3.01031 4.10019 -0.712925 2.99547 -3.46197 -0.0 0.0 -0.0 14.3 26.4995 -28.6435 -3.09368 47.0689 -50.9405 1.1765 30.2327 -0.317815 -19.1854 1.05543 -2.20306 0.298966 12.4213 3.26664 0.0 0.0 0.0 24.1161 -4.08457 -1.40225 -24.7746 0.208495 3.76663 35.1363 23.5716 -4.63734 -27.6339 0.0 0.0 -0.0 0.0 -0.0 -5.58677 -22.7389 5.65722 -9.81848 -0.278071 -1.47933 38.3562 22.7648 5.32822 12.0931 -0.0 -0.0 0.0 0.0 0.0 
3407.14 707.516 -1557.49 2.04326 72.3885 -7.98974 -0.230122 0.686788 3.04709 -0.225092 0.491597 3.08457 -0.195265 -0.178243 3.11837 -0.208694 0.316239 3.10742 -8.44748 -16.7965 7.91663 -8.44034 -36.8877 3.94948 -0.0 0.0 -0.0 -7.26212 20.4721 -8.3281 -10.868 -14.8183 78.9355 0.509841 -14.1744 0.0633889 -40.8887 -3.04617 4.12375 -0.676607 2.75899 -3.32396 -0.0 0.0 -0.0 14.0396 26.0292 -28.0922 -2.29848 47.7267 -51.5639 1.19886 30.704 -0.32915 -18.03 0.971406 -2.08129 -0.190211 13.506 7.03631 0.0 0.0 0.0 23.5774 -5.48215 -1.02857 -22.6303 0.25513 3.44091 38.5649 23.6142 -4.98619 -27.8336 0.0 0.0 -0.0 0.0 -0.0 -5.78249 -19.0356 5.89972 -11.7015 -0.302219 -1.76724 39.0958 18.4615 5.20843 14.0887 -0.0 -0.0 0.0 0.0 0.0 
3397.76 703.446 -1557.72 1.57928 73.7137 -7.8506 -0.0788587 0.633088 3.05177 -0.0737842 0.437708 3.08582 -0.047139 -0.223194 3.10869 -0.0605221 0.270324 3.10495 -7.20943 -15.0961 8.47572 -6.93574 -34.0968 5.38609 -0.0 0.0 -0.0 -7.27623 18.8124 -8.88686 -11.8846 -14.6664 80.1429 0.381924 -10.7136 0.0358121 -41.663 -3.12974 4.17752 -0.587982 2.63298 -2.79072 -0.0 0.0 -0.0 14.2214 26.4271 -28.4685 -1.58096 45.6261 -51.1044 1.36333 34.0315 -0.41724 -16.7101 0.878454 -1.94016 -0.997458 12.2669 12.0189 0.0 0.0 0.0 24.3468 -6.51007 -1.19477 -14.0576 0.319089 2.12833 31.0521 15.5727 -4.05535 -29.3349 0.0 0.0 -0.0 0.0 -0.0 -5.90651 -16.5192 6.37799 -14.5899 -0.320843 -2.20998 38.4735 17.5371 5.11592 17.8696 -0.0 -0.0 0.0 0.0 0.0 
3386.36 702.996 -1557.05 -2.16416 73.8887 -4.10267 0.114535 0.669804 3.01132 0.119453 0.47692 3.04779 0.147597 -0.166298 3.08037 0.134501 0.322041 3.06801 -6.78376 -13.7353 10.1955 -6.32747 -32.7989 7.59674 -0.0 0.0 -0.0 -7.16563 18.7025 -8.74802 -13.2939 -14.7075 79.8469 0.266229 -7.51309 0.0174802 -41.7372 -3.13779 4.18262 -0.611588 2.96885 -2.80201 -0.0 0.0 -0.0 14.3918 26.693 -28.8342 -0.921257 44.138 -50.8773 1.46481 35.9633 -0.475451 -16.3674 0.854859 -1.90318 -1.34554 14.0312 15.1753 0.0 0.0 0.0 24.1757 -7.52083 -1.69652 -10.1894 0.283575 1.53597 30.2368 15.8482 -3.97017 -28.3327 0.0 0.0 -0.0 0.0 -0.0 -5.92397 -15.6245 6.42199 -15.3774 -0.322047 -2.33079 38.895 16.436 5.11507 21.2098 -0.0 -0.0 0.0 0.0 0.0 
3376.39 704.898 -1552.38 -5.02767 73.2232 -1.18409 0.23423 0.645755 2.94693 0.238945 0.457012 2.982 0.26521 -0.165939 3.01222 0.252685 0.311649 3.00066 -7.10208 -9.18494 5.45297 -6.98822 -20.9823 3.58525 -0.0 0.0 -0.0 -6.84582 18.3549 -8.35285 -14.6948 -14.6115 81.0251 0.204208 -5.77646 0.0103027 -42.7175 -3.24469 4.24893 -0.522987 3.89734 -1.81599 -0.0 0.0 -0.0 14.4916 26.7865 -29.0564 0.226211 42.6707 -51.1859 1.65131 39.2805 -0.589349 -14.1825 0.709669 -1.66415 -2.0548 12.3468 19.448 0.0 0.0 0.0 24.6294 -8.18342 -1.70328 -6.74086 0.218274 1.0109 22.4366 15.8622 -3.06541 -29.8218 0.0 0.0 -0.0 0.0 -0.0 -5.88614 -13.986 6.20741 -13.6881 -0.317425 -2.07165 35.2245 15.1828 4.72371 19.5704 -0.0 -0.0 0.0 0.0 0.0 
